<svg xmlns="http://www.w3.org/2000/svg" width="750" height="40.5" viewbox="0 0 750 40.5"><g transform="translate(0, 0)"><g text-anchor="middle"><g ><g transform="translate(11.71875, 8)"><text x="726.5625" font-size="8" font-family="sans-serif" font-weight="normal">0</text><text x="562.5" font-size="8" font-family="sans-serif" font-weight="normal">7</text><text x="539.0625" font-size="8" font-family="sans-serif" font-weight="normal">8</text><text x="515.625" font-size="8" font-family="sans-serif" font-weight="normal">9</text><text x="492.1875" font-size="8" font-family="sans-serif" font-weight="normal">10</text><text x="70.3125" font-size="8" font-family="sans-serif" font-weight="normal">28</text><text x="46.875" font-size="8" font-family="sans-serif" font-weight="normal">29</text><text x="23.4375" font-size="8" font-family="sans-serif" font-weight="normal">30</text><text x="0.0" font-size="8" font-family="sans-serif" font-weight="normal">31</text></g><g transform="translate(0, 9.6)"><g transform="translate(0, 0)"><rect style=";fill:rgb(229, 229, 229)" x="562.5" y="0.5" width="187.5" height="21.9" fill="rgb(229, 229, 229)"/><rect style=";fill:rgb(255, 204, 204)" x="515.625" y="0.5" width="46.875" height="21.9" fill="rgb(255, 204, 204)"/><rect style=";fill:rgb(238, 255, 204)" x="23.4375" y="0.5" width="46.875" height="21.9" fill="rgb(238, 255, 204)"/><rect style=";fill:rgb(204, 255, 246)" x="0.0" y="0.5" width="23.4375" height="21.9" fill="rgb(204, 255, 246)"/></g><g transform="translate(11.71875, 15.2)"><g transform="translate(644.53125, -6)"><text font-size="8" font-family="sans-serif" font-weight="normal" text-anchor="middle" y="6"><tspan >label</tspan></text></g><g transform="translate(527.34375, -6)"><text font-size="8" font-family="sans-serif" font-weight="normal" text-anchor="middle" y="6"><tspan >SDI</tspan></text></g><g transform="translate(281.25, -6)"><text font-size="8" font-family="sans-serif" font-weight="normal" text-anchor="middle" y="6"><tspan >data</tspan></text></g><g transform="translate(35.15625, -6)"><text font-size="8" font-family="sans-serif" font-weight="normal" text-anchor="middle" y="6"><tspan >SSM</tspan></text></g><g transform="translate(0.0, -6)"><text font-size="8" font-family="sans-serif" font-weight="normal" text-anchor="middle" y="6"><tspan >parity</tspan></text></g></g><g transform="translate(11.71875, 30.4)"><g transform="translate(0, 0)"><text x="644.53125" font-size="8" font-family="sans-serif" font-weight="normal"><tspan >bit reverse</tspan></text></g></g></g></g></g><g stroke="black" stroke-width="1" stroke-linecap="butt" transform="translate(0, 9.6)"><line x2="750.0" y1="22.4" y2="22.4"/><line x2="750.0"/><line x1="0.5" x2="0.5" y2="22.4"/><line x1="23.90625" x2="23.90625" y2="22.4"/><line x1="47.3125" x2="47.3125" y2="2.8"/><line x1="47.3125" x2="47.3125" y1="19.599999999999998" y2="22.4"/><line x1="70.71875" x2="70.71875" y2="22.4"/><line x1="94.125" x2="94.125" y2="2.8"/><line x1="94.125" x2="94.125" y1="19.599999999999998" y2="22.4"/><line x1="117.53125" x2="117.53125" y2="2.8"/><line x1="117.53125" x2="117.53125" y1="19.599999999999998" y2="22.4"/><line x1="140.9375" x2="140.9375" y2="2.8"/><line x1="140.9375" x2="140.9375" y1="19.599999999999998" y2="22.4"/><line x1="164.34375" x2="164.34375" y2="2.8"/><line x1="164.34375" x2="164.34375" y1="19.599999999999998" y2="22.4"/><line x1="187.75" x2="187.75" y2="2.8"/><line x1="187.75" x2="187.75" y1="19.599999999999998" y2="22.4"/><line x1="211.15625" x2="211.15625" y2="2.8"/><line x1="211.15625" x2="211.15625" y1="19.599999999999998" y2="22.4"/><line x1="234.5625" x2="234.5625" y2="2.8"/><line x1="234.5625" x2="234.5625" y1="19.599999999999998" y2="22.4"/><line x1="257.96875" x2="257.96875" y2="2.8"/><line x1="257.96875" x2="257.96875" y1="19.599999999999998" y2="22.4"/><line x1="281.375" x2="281.375" y2="2.8"/><line x1="281.375" x2="281.375" y1="19.599999999999998" y2="22.4"/><line x1="304.78125" x2="304.78125" y2="2.8"/><line x1="304.78125" x2="304.78125" y1="19.599999999999998" y2="22.4"/><line x1="328.1875" x2="328.1875" y2="2.8"/><line x1="328.1875" x2="328.1875" y1="19.599999999999998" y2="22.4"/><line x1="351.59375" x2="351.59375" y2="2.8"/><line x1="351.59375" x2="351.59375" y1="19.599999999999998" y2="22.4"/><line x1="375.0" x2="375.0" y2="2.8"/><line x1="375.0" x2="375.0" y1="19.599999999999998" y2="22.4"/><line x1="398.40625" x2="398.40625" y2="2.8"/><line x1="398.40625" x2="398.40625" y1="19.599999999999998" y2="22.4"/><line x1="421.8125" x2="421.8125" y2="2.8"/><line x1="421.8125" x2="421.8125" y1="19.599999999999998" y2="22.4"/><line x1="445.21875" x2="445.21875" y2="2.8"/><line x1="445.21875" x2="445.21875" y1="19.599999999999998" y2="22.4"/><line x1="468.625" x2="468.625" y2="2.8"/><line x1="468.625" x2="468.625" y1="19.599999999999998" y2="22.4"/><line x1="492.03125" x2="492.03125" y2="2.8"/><line x1="492.03125" x2="492.03125" y1="19.599999999999998" y2="22.4"/><line x1="515.4375" x2="515.4375" y2="22.4"/><line x1="538.84375" x2="538.84375" y2="2.8"/><line x1="538.84375" x2="538.84375" y1="19.599999999999998" y2="22.4"/><line x1="562.25" x2="562.25" y2="22.4"/><line x1="585.65625" x2="585.65625" y2="2.8"/><line x1="585.65625" x2="585.65625" y1="19.599999999999998" y2="22.4"/><line x1="609.0625" x2="609.0625" y2="2.8"/><line x1="609.0625" x2="609.0625" y1="19.599999999999998" y2="22.4"/><line x1="632.46875" x2="632.46875" y2="2.8"/><line x1="632.46875" x2="632.46875" y1="19.599999999999998" y2="22.4"/><line x1="655.875" x2="655.875" y2="2.8"/><line x1="655.875" x2="655.875" y1="19.599999999999998" y2="22.4"/><line x1="679.28125" x2="679.28125" y2="2.8"/><line x1="679.28125" x2="679.28125" y1="19.599999999999998" y2="22.4"/><line x1="702.6875" x2="702.6875" y2="2.8"/><line x1="702.6875" x2="702.6875" y1="19.599999999999998" y2="22.4"/><line x1="726.09375" x2="726.09375" y2="2.8"/><line x1="726.09375" x2="726.09375" y1="19.599999999999998" y2="22.4"/><line x1="749.5" x2="749.5" y2="22.4"/></g></g></svg>
